<?xml version="1.0" standalone="no"?>
<!DOCTYPE svg PUBLIC "-//W3C//DTD SVG 20010904//EN"
 "http://www.w3.org/TR/2001/REC-SVG-20010904/DTD/svg10.dtd">
<svg version="1.0" xmlns="http://www.w3.org/2000/svg"
 width="1504.000000pt" height="1128.000000pt" viewBox="0 0 1504.000000 1128.000000"
 preserveAspectRatio="xMidYMid meet">

<g transform="translate(0.000000,1128.000000) scale(0.100000,-0.100000)"
fill="#000000" stroke="none">
<path d="M0 5640 l0 -5640 7520 0 7520 0 0 5640 0 5640 -7520 0 -7520 0 0
-5640z m7402 867 c-1086 -1086 -1243 -1247 -1248 -1277 -10 -69 53 -125 126
-112 17 3 314 293 920 897 561 559 917 907 955 932 198 132 406 196 640 196
247 0 465 -71 650 -212 462 -352 567 -998 242 -1486 -25 -38 -382 -403 -966
-987 l-926 -928 -700 0 -700 0 1243 1243 c1086 1086 1243 1247 1248 1277 10
69 -53 125 -126 112 -17 -3 -322 -300 -940 -916 -836 -833 -922 -916 -997
-959 -183 -106 -318 -146 -523 -154 -152 -6 -241 4 -370 43 -212 65 -412 205
-546 384 -282 374 -294 880 -31 1275 25 38 382 403 966 988 l926 927 700 0
700 0 -1243 -1243z"/>
</g>
</svg>
